# Blender 3.4.1
# www.blender.org
o watermelon
v 4.460000 -0.071500 -5.891600
v 7.034800 1.492300 -3.729100
v 6.907400 -1.335800 -3.761300
v 8.573100 0.166500 -1.214400
v 7.795300 3.314700 -1.118000
v 8.354500 1.841100 1.133600
v 6.838300 4.764100 1.214500
v 5.843600 6.015100 -1.129900
v 4.523000 6.778500 1.077400
v 3.129700 7.336200 -1.239800
v 1.064700 7.459900 1.066400
v -0.621000 7.361400 -1.136200
v -2.826300 6.859900 1.196300
v -4.604700 6.182300 -1.121800
v -2.514100 6.258600 -3.215500
v -5.301300 4.619700 -3.714500
v -2.138300 4.694200 -5.322100
v -4.695401 2.498800 -5.802400
v -1.618300 2.475100 -6.737600
v -3.903400 -0.083300 -6.774300
v 1.316700 4.199800 -5.800900
v 0.936100 6.445200 -3.717200
v 3.931400 5.749300 -3.717600
v 6.205500 4.207900 -3.218000
v 4.390300 2.996000 -5.339300
v 1.809300 1.495700 -6.776900
v -6.028900 5.313200 1.126200
v -7.167300 4.150200 -1.215300
v -7.086900 2.446300 -3.714300
v -6.283900 -0.039800 -5.333799
v -4.902300 -2.636700 -5.886800
v -2.093000 -2.767300 -6.965600
v -2.922500 -4.954500 -5.613700
v 0.274800 -4.550300 -6.226000
v -0.586700 -6.613200 -4.102800
v 2.578900 -5.746200 -4.060100
v 1.437300 -7.126500 -1.351700
v 4.896200 -5.540600 -1.184700
v -7.988600 2.820600 1.133700
v -8.423400 1.498400 -1.114600
v -7.914400 -0.029400 -3.212600
v -7.122300 -2.511400 -3.723300
v -5.574700 -4.719400 -3.783700
v -3.428100 -6.400800 -3.413800
v -1.983600 -7.387500 -1.215100
v -0.332000 -7.459900 1.305000
v 3.354300 -6.458700 1.277100
v 6.446300 -4.293000 1.286700
v -8.573100 -0.028900 1.233800
v -8.423600 -1.556300 -1.114600
v -7.217200 -4.211700 -1.218600
v -5.058500 -6.258500 -1.148100
v -3.566900 -6.970100 1.332600
v -7.993800 -2.879300 1.134600
v -6.189100 -5.389400 1.153600
v 1.022000 4.630500 5.205400
v 4.583400 4.924400 3.652300
v 2.209600 6.429500 3.114600
v -1.152900 6.226200 3.628900
v -4.263000 5.319200 3.690200
v -6.626800 3.762000 3.225100
v -7.489000 1.291600 3.732700
v -7.494300 -1.355300 3.736600
v -6.679100 -3.842900 3.255400
v -4.529200 -5.516500 3.890400
v -1.801500 -6.572700 4.116500
v 1.280800 -6.623800 3.654500
v 4.068400 -4.961400 4.039500
v 6.329200 -2.581200 3.834300
v 3.206000 -2.852200 6.120100
v 5.188400 -0.071800 5.405000
v 2.086000 -0.207400 6.848800
v 3.334600 2.487300 5.762400
v -0.112200 2.358600 6.672100
v -2.438400 4.009600 5.727700
v -5.306100 2.810200 5.322400
v -5.707600 -0.059900 5.832601
v -5.358500 -2.965000 5.422900
v -2.591900 -4.435300 6.154600
v 0.680600 -5.165100 5.861100
v -0.157400 -2.878000 7.090300
v -1.105800 -0.206800 7.326200
v -3.426300 1.435000 6.729100
v -3.442300 -1.721300 6.876500
v 6.486700 2.699300 3.715900
v 7.567300 0.092800 3.244600
v 8.337100 -1.469800 1.136600
v 7.649700 -2.871600 -1.126400
v 5.608600 -3.967400 -3.347500
v 3.749900 -3.140500 -5.577400
v 1.422700 -1.808500 -6.962600
v -0.974100 -0.143300 -7.326200
vn 0.5021 -0.0135 -0.8647
vn 0.7532 0.1711 -0.6352
vn 0.7428 -0.2412 -0.6246
vn 0.9668 -0.0235 -0.2546
vn 0.8834 0.4144 -0.2187
vn 0.9415 0.2333 0.2431
vn 0.7518 0.5949 0.2845
vn 0.6340 0.7459 -0.2042
vn 0.4146 0.8677 0.2742
vn 0.2168 0.9541 -0.2065
vn 0.0184 0.9756 0.2188
vn -0.1384 0.9754 -0.1715
vn -0.2849 0.9399 0.1880
vn -0.4463 0.8784 -0.1712
vn -0.2552 0.8541 -0.4532
vn -0.5122 0.6790 -0.5259
vn -0.1918 0.6463 -0.7386
vn -0.4516 0.3837 -0.8055
vn -0.1031 0.3451 -0.9329
vn -0.3465 0.0464 -0.9369
vn 0.1369 0.5344 -0.8341
vn 0.0194 0.8306 -0.5565
vn 0.3702 0.6971 -0.6140
vn 0.6683 0.4897 -0.5599
vn 0.4587 0.3479 -0.8176
vn 0.2247 0.1997 -0.9538
vn -0.6149 0.7713 0.1643
vn -0.7679 0.6119 -0.1897
vn -0.7689 0.3583 -0.5295
vn -0.6720 0.0221 -0.7402
vn -0.5246 -0.3144 -0.7912
vn -0.1493 -0.2685 -0.9517
vn -0.2853 -0.6222 -0.7290
vn 0.1431 -0.5510 -0.8221
vn 0.0238 -0.8734 -0.4865
vn 0.3911 -0.7641 -0.5130
vn 0.2522 -0.9541 -0.1617
vn 0.5620 -0.8087 -0.1737
vn -0.8939 0.4157 0.1677
vn -0.9621 0.2142 -0.1688
vn -0.8923 0.0051 -0.4514
vn -0.7964 -0.3246 -0.5103
vn -0.6090 -0.6219 -0.4922
vn -0.3448 -0.8456 -0.4076
vn -0.1444 -0.9799 -0.1378
vn 0.0569 -0.9901 0.1281
vn 0.4271 -0.8936 0.1378
vn 0.7036 -0.6821 0.1991
vn -0.9832 0.0010 0.1827
vn -0.9643 -0.2068 -0.1655
vn -0.8032 -0.5691 -0.1758
vn -0.5271 -0.8367 -0.1482
vn -0.3465 -0.9245 0.1586
vn -0.9034 -0.3959 0.1649
vn -0.6745 -0.7212 0.1579
vn 0.1428 0.6099 0.7795
vn 0.4402 0.6152 0.6540
vn 0.1771 0.8116 0.5567
vn -0.0898 0.8310 0.5489
vn -0.3947 0.7577 0.5197
vn -0.6981 0.5536 0.4541
vn -0.8287 0.2008 0.5224
vn -0.8376 -0.1854 0.5138
vn -0.7399 -0.5123 0.4360
vn -0.4984 -0.7154 0.4896
vn -0.1426 -0.8653 0.4805
vn 0.2405 -0.8831 0.4028
vn 0.5147 -0.6784 0.5243
vn 0.7017 -0.3790 0.6033
vn 0.4315 -0.3120 0.8464
vn 0.5576 0.0223 0.8298
vn 0.2781 0.0646 0.9584
vn 0.3635 0.3570 0.8604
vn 0.0804 0.3561 0.9310
vn -0.1597 0.5797 0.7990
vn -0.5195 0.4237 0.7421
vn -0.6009 0.0211 0.7991
vn -0.5843 -0.3712 0.7217
vn -0.2594 -0.5370 0.8027
vn 0.1711 -0.6362 0.7523
vn 0.0647 -0.2524 0.9655
vn -0.0187 0.0706 0.9973
vn -0.2636 0.2416 0.9339
vn -0.3096 -0.1484 0.9392
vn 0.6687 0.3481 0.6571
vn 0.8109 -0.0076 0.5851
vn 0.9312 -0.2848 0.2274
vn 0.8288 -0.5155 -0.2175
vn 0.6314 -0.5939 -0.4985
vn 0.4776 -0.4025 -0.7809
vn 0.2305 -0.1614 -0.9596
vn -0.0192 0.0471 -0.9987
vt 0.834600 0.061200
vt 0.824900 0.029100
vt 0.849800 0.035600
vt 0.853600 0.006600
vt 0.790200 0.016200
vt 0.739500 0.005700
vt 0.966500 0.005700
vt 0.763100 0.030500
vt 0.990200 0.030500
vt 0.781700 0.043700
vt 0.767800 0.056600
vt 0.994900 0.056600
vt 0.780500 0.070000
vt 0.768800 0.088600
vt 0.995800 0.088600
vt 0.779500 0.104700
vt 0.768000 0.126700
vt 0.995100 0.126700
vt 0.780000 0.144500
vt 0.790600 0.124400
vt 0.796400 0.153200
vt 0.803900 0.122700
vt 0.813300 0.149900
vt 0.817300 0.120400
vt 0.828700 0.145100
vt 0.809000 0.089200
vt 0.793400 0.090800
vt 0.796400 0.062500
vt 0.801400 0.038200
vt 0.815400 0.058500
vt 0.824200 0.087300
vt 0.767300 0.159400
vt 0.994400 0.159400
vt 0.782700 0.173300
vt 0.804600 0.175200
vt 0.826000 0.169600
vt 0.842800 0.157700
vt 0.843200 0.130300
vt 0.855500 0.140100
vt 0.853600 0.110100
vt 0.867200 0.120400
vt 0.866100 0.089400
vt 0.880900 0.102000
vt 0.880600 0.064700
vt 0.763400 0.186500
vt 0.990500 0.186500
vt 0.789200 0.197700
vt 0.820600 0.192000
vt 0.845700 0.184600
vt 0.860200 0.167900
vt 0.868700 0.147100
vt 0.881400 0.134900
vt 0.893900 0.119300
vt 0.894200 0.082100
vt 0.896600 0.046400
vt 0.742000 0.207700
vt 0.969100 0.207700
vt 0.846800 0.210700
vt 0.874800 0.189900
vt 0.880300 0.164700
vt 0.894900 0.149800
vt 0.907100 0.202300
vt 0.896400 0.177000
vt 0.969900 0.091100
vt 0.975700 0.054100
vt 0.984100 0.077800
vt 0.982200 0.111300
vt 0.980600 0.142200
vt 0.978800 0.167700
vt 0.963500 0.182300
vt 0.940100 0.187900
vt 0.917400 0.180700
vt 0.911700 0.157200
vt 0.908400 0.131400
vt 0.905500 0.103100
vt 0.910700 0.073500
vt 0.918400 0.045000
vt 0.926800 0.079400
vt 0.939600 0.052800
vt 0.941900 0.086500
vt 0.956700 0.068900
vt 0.956600 0.105700
vt 0.967500 0.126600
vt 0.965000 0.155300
vt 0.948200 0.163100
vt 0.929800 0.163000
vt 0.923100 0.136300
vt 0.918000 0.107000
vt 0.930500 0.112300
vt 0.943900 0.118500
vt 0.953900 0.138800
vt 0.937600 0.142000
vt 0.961300 0.033800
vt 0.935200 0.024300
vt 0.903100 0.017500
vt 0.877100 0.030100
vt 0.864900 0.054900
vt 0.851400 0.073700
vt 0.840800 0.095700
vt 0.831000 0.117100
s 1
usemtl fruit_objects01
f 1/1/1 2/2/2 3/3/3
f 4/4/4 3/3/3 2/2/2
f 4/4/4 2/2/2 5/5/5
f 6/6/6 4/4/4 5/5/5
f 5/5/5 7/8/7 6/6/6
f 8/10/8 7/8/7 5/5/5
f 8/10/8 9/11/9 7/8/7
f 9/11/9 8/10/8 10/13/10
f 9/11/9 10/13/10 11/14/11
f 11/14/11 10/13/10 12/16/12
f 12/16/12 13/17/13 11/14/11
f 14/19/14 13/17/13 12/16/12
f 15/20/15 14/19/14 12/16/12
f 14/19/14 15/20/15 16/21/16
f 17/22/17 16/21/16 15/20/15
f 18/23/18 16/21/16 17/22/17
f 19/24/19 18/23/18 17/22/17
f 20/25/20 18/23/18 19/24/19
f 19/24/19 17/22/17 21/26/21
f 17/22/17 22/27/22 21/26/21
f 17/22/17 15/20/15 22/27/22
f 12/16/12 22/27/22 15/20/15
f 10/13/10 22/27/22 12/16/12
f 10/13/10 23/28/23 22/27/22
f 8/10/8 23/28/23 10/13/10
f 8/10/8 24/29/24 23/28/23
f 24/29/24 8/10/8 5/5/5
f 5/5/5 2/2/2 24/29/24
f 25/30/25 24/29/24 2/2/2
f 25/30/25 2/2/2 1/1/1
f 26/31/26 25/30/25 1/1/1
f 26/31/26 21/26/21 25/30/25
f 21/26/21 23/28/23 25/30/25
f 21/26/21 22/27/22 23/28/23
f 25/30/25 23/28/23 24/29/24
f 14/19/14 27/32/27 13/17/13
f 27/32/27 14/19/14 28/34/28
f 14/19/14 16/21/16 28/34/28
f 28/34/28 16/21/16 29/35/29
f 18/23/18 29/35/29 16/21/16
f 30/36/30 29/35/29 18/23/18
f 20/25/20 30/36/30 18/23/18
f 20/25/20 31/37/31 30/36/30
f 32/38/32 31/37/31 20/25/20
f 32/38/32 33/39/33 31/37/31
f 32/38/32 34/40/34 33/39/33
f 34/40/34 35/41/35 33/39/33
f 34/40/34 36/42/36 35/41/35
f 37/43/37 35/41/35 36/42/36
f 37/43/37 36/42/36 38/44/38
f 27/32/27 28/34/28 39/45/39
f 39/45/39 28/34/28 40/47/40
f 28/34/28 29/35/29 40/47/40
f 40/47/40 29/35/29 41/48/41
f 30/36/30 41/48/41 29/35/29
f 30/36/30 42/49/42 41/48/41
f 31/37/31 42/49/42 30/36/30
f 31/37/31 43/50/43 42/49/42
f 33/39/33 43/50/43 31/37/31
f 33/39/33 44/51/44 43/50/43
f 33/39/33 35/41/35 44/51/44
f 45/52/45 44/51/44 35/41/35
f 45/52/45 35/41/35 37/43/37
f 46/53/46 45/52/45 37/43/37
f 46/53/46 37/43/37 47/54/47
f 47/54/47 37/43/37 38/44/38
f 38/44/38 48/55/48 47/54/47
f 40/47/40 49/56/49 39/45/39
f 50/58/50 49/56/49 40/47/40
f 41/48/41 50/58/50 40/47/40
f 50/58/50 41/48/41 42/49/42
f 50/58/50 42/49/42 51/59/51
f 51/59/51 42/49/42 43/50/43
f 51/59/51 43/50/43 52/60/52
f 52/60/52 43/50/43 44/51/44
f 44/51/44 45/52/45 52/60/52
f 45/52/45 53/61/53 52/60/52
f 45/52/45 46/53/46 53/61/53
f 50/58/50 54/62/54 49/56/49
f 54/62/54 50/58/50 51/59/51
f 54/62/54 51/59/51 55/63/55
f 55/63/55 51/59/51 52/60/52
f 52/60/52 53/61/53 55/63/55
f 56/64/56 57/65/57 58/66/58
f 56/64/56 58/66/58 59/67/59
f 11/15/11 59/67/59 58/66/58
f 13/18/13 59/67/59 11/15/11
f 13/18/13 60/68/60 59/67/59
f 27/33/27 60/68/60 13/18/13
f 27/33/27 61/69/61 60/68/60
f 61/69/61 27/33/27 39/46/39
f 39/46/39 62/70/62 61/69/61
f 49/57/49 62/70/62 39/46/39
f 49/57/49 63/71/63 62/70/62
f 54/62/54 63/71/63 49/57/49
f 54/62/54 64/72/64 63/71/63
f 64/72/64 54/62/54 55/63/55
f 55/63/55 65/73/65 64/72/64
f 53/61/53 65/73/65 55/63/55
f 53/61/53 66/74/66 65/73/65
f 46/53/46 66/74/66 53/61/53
f 46/53/46 67/75/67 66/74/66
f 67/75/67 46/53/46 47/54/47
f 47/54/47 68/76/68 67/75/67
f 48/55/48 68/76/68 47/54/47
f 48/55/48 69/77/69 68/76/68
f 70/78/70 68/76/68 69/77/69
f 70/78/70 69/77/69 71/79/71
f 72/80/72 70/78/70 71/79/71
f 72/80/72 71/79/71 73/81/73
f 72/80/72 73/81/73 74/82/74
f 74/82/74 73/81/73 56/64/56
f 74/82/74 56/64/56 75/83/75
f 56/64/56 59/67/59 75/83/75
f 75/83/75 59/67/59 60/68/60
f 75/83/75 60/68/60 76/84/76
f 76/84/76 60/68/60 61/69/61
f 76/84/76 61/69/61 62/70/62
f 76/84/76 62/70/62 77/85/77
f 77/85/77 62/70/62 63/71/63
f 77/85/77 63/71/63 78/86/78
f 78/86/78 63/71/63 64/72/64
f 78/86/78 64/72/64 65/73/65
f 78/86/78 65/73/65 79/87/79
f 79/87/79 65/73/65 66/74/66
f 79/87/79 66/74/66 80/88/80
f 80/88/80 66/74/66 67/75/67
f 80/88/80 67/75/67 68/76/68
f 80/88/80 68/76/68 70/78/70
f 81/89/81 80/88/80 70/78/70
f 81/89/81 70/78/70 72/80/72
f 82/90/82 81/89/81 72/80/72
f 82/90/82 72/80/72 74/82/74
f 82/90/82 74/82/74 83/91/83
f 74/82/74 75/83/75 83/91/83
f 83/91/83 75/83/75 76/84/76
f 83/91/83 76/84/76 77/85/77
f 82/90/82 84/92/84 81/89/81
f 82/90/82 83/91/83 84/92/84
f 83/91/83 77/85/77 84/92/84
f 84/92/84 77/85/77 78/86/78
f 84/92/84 78/86/78 79/87/79
f 84/92/84 79/87/79 81/89/81
f 81/89/81 79/87/79 80/88/80
f 58/66/58 9/12/9 11/15/11
f 9/12/9 58/66/58 57/65/57
f 9/12/9 57/65/57 7/9/7
f 7/9/7 57/65/57 85/93/85
f 7/9/7 85/93/85 6/7/6
f 6/7/6 85/93/85 86/94/86
f 86/94/86 87/95/87 6/7/6
f 87/95/87 4/4/4 6/7/6
f 87/95/87 88/96/88 4/4/4
f 88/96/88 3/3/3 4/4/4
f 88/96/88 89/97/89 3/3/3
f 90/98/90 3/3/3 89/97/89
f 1/1/1 3/3/3 90/98/90
f 91/99/91 1/1/1 90/98/90
f 26/31/26 1/1/1 91/99/91
f 92/100/92 26/31/26 91/99/91
f 92/100/92 19/24/19 26/31/26
f 19/24/19 21/26/21 26/31/26
f 92/100/92 20/25/20 19/24/19
f 92/100/92 32/38/32 20/25/20
f 92/100/92 91/99/91 32/38/32
f 91/99/91 34/40/34 32/38/32
f 91/99/91 90/98/90 34/40/34
f 90/98/90 36/42/36 34/40/34
f 90/98/90 89/97/89 36/42/36
f 38/44/38 36/42/36 89/97/89
f 89/97/89 88/96/88 38/44/38
f 88/96/88 48/55/48 38/44/38
f 88/96/88 87/95/87 48/55/48
f 87/95/87 69/77/69 48/55/48
f 87/95/87 86/94/86 69/77/69
f 71/79/71 69/77/69 86/94/86
f 71/79/71 86/94/86 85/93/85
f 71/79/71 85/93/85 73/81/73
f 73/81/73 85/93/85 57/65/57
f 73/81/73 57/65/57 56/64/56
